<svg
  viewBox="0 0 160 120"
  width="320"
  height="240"
  xmlns="http://www.w3.org/2000/svg"
>
  <!-- 背景 (空) -->
  <rect x="0" y="0" width="160" height="120" fill="hsl(200, 60%, 60%)" />

  <!-- 地面 -->
  <rect x="0" y="100" width="50" height="20" fill="hsl(30, 50%, 35%)" />
  <rect x="70" y="100" width="90" height="20" fill="hsl(30, 50%, 35%)" />

  <!-- 穴 -->
  <rect x="50" y="108" width="20" height="12" fill="hsl(240, 20%, 15%)" />

  <!-- スライム -->
  <g transform="translate(20, 92)">
    <rect x="1" y="0" width="4" height="1" fill="hsl(180, 70%, 45%)" />
    <rect x="0" y="1" width="6" height="1" fill="hsl(180, 70%, 45%)" />
    <rect x="0" y="2" width="6" height="1" fill="hsl(180, 70%, 45%)" />
    <rect x="1" y="3" width="4" height="1" fill="hsl(180, 70%, 45%)" />
    <!-- 目 -->
    <rect x="1" y="1" width="1" height="1" fill="hsl(0, 0%, 100%)" />
    <rect x="4" y="1" width="1" height="1" fill="hsl(0, 0%, 100%)" />
  </g>

  <!-- チェックポイントの旗 -->
  <g transform="translate(90, 85)">
    <rect x="2" y="0" width="1" height="15" fill="hsl(0, 0%, 90%)" />
    <rect x="3" y="0" width="8" height="3" fill="hsl(45, 90%, 55%)" />
  </g>

  <!-- ゴールの旗 -->
  <g transform="translate(130, 80)">
    <rect x="2" y="0" width="1" height="20" fill="hsl(0, 0%, 90%)" />
    <rect x="3" y="0" width="10" height="5" fill="hsl(120, 60%, 50%)" />
  </g>

  <!-- 雲 -->
  <g fill="hsl(0, 0%, 95%)">
    <rect x="15" y="20" width="20" height="6" />
    <rect x="18" y="17" width="14" height="3" />
    <rect x="100" y="30" width="15" height="5" />
    <rect x="102" y="27" width="11" height="3" />
  </g>
</svg>
